<svg width="139" height="55" viewBox="0 0 139 55" fill="none" xmlns="http://www.w3.org/2000/svg">
<path d="M76.951 0.00146484C65.7009 0.00146484 56.5801 9.95685 56.5801 22.2367C56.5801 34.5166 76.951 54.9917 76.951 54.9917C76.951 54.9917 97.322 34.5166 97.322 22.2367C97.3191 9.95685 88.2012 0.00146484 76.951 0.00146484ZM76.951 33.0328C71.0824 33.0328 66.3222 27.8399 66.3222 21.4308C66.3222 15.0218 71.0795 9.82884 76.951 9.82884C82.8197 9.82884 87.5799 15.0218 87.5799 21.4308C87.5799 27.8399 82.8197 33.0328 76.951 33.0328Z" fill="white"/>
<path d="M31.9653 39.2843C32.0119 43.6191 30.4748 47.3196 27.3538 50.3831C24.2328 53.4494 20.4556 54.9825 16.0162 54.9825C11.5797 54.9825 7.8112 53.461 4.71356 50.418C1.61883 47.3749 0.0466689 43.5726 0 39.008H5.60318C5.55651 41.9317 6.54823 44.4599 8.57541 46.5952C10.6026 48.7306 13.0469 49.8216 15.9083 49.8652C18.9038 49.9118 21.4735 48.8964 23.6203 46.8222C25.7641 44.745 26.7909 42.2081 26.6975 39.2116C26.5575 34.2747 23.2936 30.8156 16.9029 28.8315L11.2268 27.0656C8.22247 26.1434 5.89195 24.5404 4.22937 22.2566C2.56679 19.9729 1.71216 17.2382 1.6655 14.0526C1.61883 10.131 3.07431 6.79698 6.03487 4.05067C8.98959 1.30727 12.481 -0.0426135 16.5033 0.00102491C20.4789 0.0475726 23.8536 1.48764 26.6275 4.32414C29.4014 7.16064 30.7869 10.5615 30.7869 14.5239H25.1866C25.2333 12.0161 24.4137 9.85458 22.7307 8.04504C21.0477 6.23259 18.9855 5.258 16.5441 5.11836C13.9627 4.97872 11.6935 5.8253 9.73338 7.6523C7.77328 9.47929 6.83991 11.667 6.93325 14.2097C7.02367 18.3757 9.0596 21.0813 13.0352 22.3294L19.4843 24.3425C27.7126 26.9289 31.8719 31.9095 31.9653 39.2843Z" fill="white"/>
<path d="M46.4446 25.3758H40.8851V5.44172H34.9961V0.00146484H52.3598V5.44172H46.4446V25.3758Z" fill="white"/>
<path d="M122.608 55.0005H117.046V35.0257H101.543V29.5854H138.137V35.0257H122.608V55.0005Z" fill="white"/>
<path d="M107.101 25.3758H101.539V6.86143C101.539 4.70278 102.251 2.98633 103.657 1.75864C104.995 0.592038 106.687 0.00146484 108.688 0.00146484H118.9V5.44172H108.671C107.941 5.44172 107.667 5.56391 107.612 5.593C107.282 5.94793 107.104 6.27085 107.104 6.50941V9.25572H116.561V14.7483H107.104V25.3758H107.101Z" fill="white"/>
<path d="M126.338 25.3753H120.775V6.86094C120.775 4.70229 121.487 2.98585 122.893 1.75815C124.229 0.59155 125.921 0.000976562 127.924 0.000976562H138.136V5.44124H127.907C127.178 5.44124 126.904 5.56342 126.848 5.59251C126.519 5.94744 126.341 6.27037 126.341 6.50892V9.25523H135.797V14.7479H126.341V25.3753H126.338Z" fill="white"/>
<path d="M40.6664 55H34.9961V29.5879H43.4461C45.9429 29.5879 48.0721 30.3617 49.7726 31.8891C51.5315 33.4717 52.4036 35.4878 52.3598 37.8792C52.3336 40.0728 51.4819 41.9376 49.828 43.4242C48.218 44.8701 46.29 45.6061 44.0994 45.6061H40.6693V55H40.6664ZM40.6664 40.2182H43.6911C44.6011 40.2182 45.307 39.9651 45.9108 39.424C46.5204 38.8945 46.7625 38.2923 46.7187 37.4574V37.4457C46.6866 36.7591 46.4183 36.2529 45.8437 35.7962C45.1903 35.2783 44.4407 35.0252 43.5569 35.0252H40.6693V40.2182H40.6664Z" fill="white"/>
</svg>
